<svg xmlns="http://www.w3.org/2000/svg" width="1600" height="1000" viewBox="0 0 1600 1000"><rect width="1600" height="1000" fill="#f8fbff"/><text x="60" y="68" font-size="48" font-family="Arial,Helvetica,sans-serif" font-weight="700" fill="#12345b">Imbalanced Learning</text><text x="62" y="108" font-size="23" font-family="Arial,Helvetica,sans-serif" fill="#5b6b82">Scientific System Overview · schematic architecture, evidence flow, outputs, and validation</text><rect x="55" y="150" width="400" height="690" rx="24" fill="#eef6ff" stroke="#bfd0e2" stroke-width="2"/><text x="79" y="198" font-size="31" font-family="Arial,Helvetica,sans-serif" font-weight="700" fill="#12345b">Evidence & Inputs</text><rect x="500" y="150" width="530" height="690" rx="24" fill="#effaf6" stroke="#bfd0e2" stroke-width="2"/><text x="524" y="198" font-size="31" font-family="Arial,Helvetica,sans-serif" font-weight="700" fill="#12345b">Analytical Core</text><rect x="1080" y="150" width="465" height="690" rx="24" fill="#fff7ef" stroke="#bfd0e2" stroke-width="2"/><text x="1104" y="198" font-size="31" font-family="Arial,Helvetica,sans-serif" font-weight="700" fill="#12345b">Scientific Outputs</text><rect x="80" y="225" width="350" height="125" rx="16" fill="#ffffff" stroke="#bfd0e2" stroke-width="2"/><rect x="80" y="225" width="12" height="125" rx="6" fill="#2f80d1"/><text x="108" y="259" font-size="22" font-family="Arial,Helvetica,sans-serif" font-weight="700" fill="#12345b">Feature matrix</text><text x="108" y="293" font-size="17" font-family="Arial,Helvetica,sans-serif" font-weight="400" fill="#5b6b82">Predictors from the target</text><text x="108" y="316" font-size="17" font-family="Arial,Helvetica,sans-serif" font-weight="400" fill="#5b6b82">classification problem</text><rect x="80" y="370" width="350" height="125" rx="16" fill="#ffffff" stroke="#bfd0e2" stroke-width="2"/><rect x="80" y="370" width="12" height="125" rx="6" fill="#1e9e94"/><text x="108" y="404" font-size="22" font-family="Arial,Helvetica,sans-serif" font-weight="700" fill="#12345b">Rare labels</text><text x="108" y="438" font-size="17" font-family="Arial,Helvetica,sans-serif" font-weight="400" fill="#5b6b82">Minority-class outcomes and class</text><text x="108" y="461" font-size="17" font-family="Arial,Helvetica,sans-serif" font-weight="400" fill="#5b6b82">prevalence</text><rect x="80" y="515" width="350" height="125" rx="16" fill="#ffffff" stroke="#bfd0e2" stroke-width="2"/><rect x="80" y="515" width="12" height="125" rx="6" fill="#f07a28"/><text x="108" y="549" font-size="22" font-family="Arial,Helvetica,sans-serif" font-weight="700" fill="#12345b">Sampling structure</text><text x="108" y="583" font-size="17" font-family="Arial,Helvetica,sans-serif" font-weight="400" fill="#5b6b82">Train/validation/test partition with</text><text x="108" y="606" font-size="17" font-family="Arial,Helvetica,sans-serif" font-weight="400" fill="#5b6b82">stratification</text><rect x="80" y="660" width="350" height="125" rx="16" fill="#ffffff" stroke="#bfd0e2" stroke-width="2"/><rect x="80" y="660" width="12" height="125" rx="6" fill="#7354b5"/><text x="108" y="694" font-size="22" font-family="Arial,Helvetica,sans-serif" font-weight="700" fill="#12345b">Costs</text><text x="108" y="728" font-size="17" font-family="Arial,Helvetica,sans-serif" font-weight="400" fill="#5b6b82">Application-specific false-positive and</text><text x="108" y="751" font-size="17" font-family="Arial,Helvetica,sans-serif" font-weight="400" fill="#5b6b82">false-negative impact</text><rect x="525" y="225" width="480" height="105" rx="16" fill="#ffffff" stroke="#bfd0e2" stroke-width="2"/><rect x="525" y="225" width="12" height="105" rx="6" fill="#1e9e94"/><text x="553" y="259" font-size="22" font-family="Arial,Helvetica,sans-serif" font-weight="700" fill="#12345b">Baseline model</text><text x="553" y="293" font-size="17" font-family="Arial,Helvetica,sans-serif" font-weight="400" fill="#5b6b82">Unweighted classifier establishes a</text><text x="553" y="316" font-size="17" font-family="Arial,Helvetica,sans-serif" font-weight="400" fill="#5b6b82">reference</text><rect x="525" y="343" width="480" height="105" rx="16" fill="#ffffff" stroke="#bfd0e2" stroke-width="2"/><rect x="525" y="343" width="12" height="105" rx="6" fill="#2f80d1"/><text x="553" y="377" font-size="22" font-family="Arial,Helvetica,sans-serif" font-weight="700" fill="#12345b">Resampling</text><text x="553" y="411" font-size="17" font-family="Arial,Helvetica,sans-serif" font-weight="400" fill="#5b6b82">Random over/under-sampling or synthetic</text><text x="553" y="434" font-size="17" font-family="Arial,Helvetica,sans-serif" font-weight="400" fill="#5b6b82">strategies</text><rect x="525" y="461" width="480" height="105" rx="16" fill="#ffffff" stroke="#bfd0e2" stroke-width="2"/><rect x="525" y="461" width="12" height="105" rx="6" fill="#f07a28"/><text x="553" y="495" font-size="22" font-family="Arial,Helvetica,sans-serif" font-weight="700" fill="#12345b">Cost-sensitive learning</text><text x="553" y="529" font-size="17" font-family="Arial,Helvetica,sans-serif" font-weight="400" fill="#5b6b82">Class weights or asymmetric loss</text><rect x="525" y="579" width="480" height="105" rx="16" fill="#ffffff" stroke="#bfd0e2" stroke-width="2"/><rect x="525" y="579" width="12" height="105" rx="6" fill="#7354b5"/><text x="553" y="613" font-size="22" font-family="Arial,Helvetica,sans-serif" font-weight="700" fill="#12345b">Threshold optimization</text><text x="553" y="647" font-size="17" font-family="Arial,Helvetica,sans-serif" font-weight="400" fill="#5b6b82">Operating point selected on validation</text><text x="553" y="670" font-size="17" font-family="Arial,Helvetica,sans-serif" font-weight="400" fill="#5b6b82">data</text><rect x="525" y="697" width="480" height="105" rx="16" fill="#ffffff" stroke="#bfd0e2" stroke-width="2"/><rect x="525" y="697" width="12" height="105" rx="6" fill="#3f9458"/><text x="553" y="731" font-size="22" font-family="Arial,Helvetica,sans-serif" font-weight="700" fill="#12345b">Probability checks</text><text x="553" y="765" font-size="17" font-family="Arial,Helvetica,sans-serif" font-weight="400" fill="#5b6b82">Calibration after imbalance treatment</text><rect x="1105" y="225" width="415" height="115" rx="16" fill="#ffffff" stroke="#bfd0e2" stroke-width="2"/><rect x="1105" y="225" width="12" height="115" rx="6" fill="#2f80d1"/><text x="1133" y="259" font-size="22" font-family="Arial,Helvetica,sans-serif" font-weight="700" fill="#12345b">Minority recall</text><text x="1133" y="293" font-size="17" font-family="Arial,Helvetica,sans-serif" font-weight="400" fill="#5b6b82">Sensitivity for the rare class</text><rect x="1105" y="358" width="415" height="115" rx="16" fill="#ffffff" stroke="#bfd0e2" stroke-width="2"/><rect x="1105" y="358" width="12" height="115" rx="6" fill="#f07a28"/><text x="1133" y="392" font-size="22" font-family="Arial,Helvetica,sans-serif" font-weight="700" fill="#12345b">Precision–recall profile</text><text x="1133" y="426" font-size="17" font-family="Arial,Helvetica,sans-serif" font-weight="400" fill="#5b6b82">Performance across decision thresholds</text><rect x="1105" y="491" width="415" height="115" rx="16" fill="#ffffff" stroke="#bfd0e2" stroke-width="2"/><rect x="1105" y="491" width="12" height="115" rx="6" fill="#3f9458"/><text x="1133" y="525" font-size="22" font-family="Arial,Helvetica,sans-serif" font-weight="700" fill="#12345b">Calibrated risk</text><text x="1133" y="559" font-size="17" font-family="Arial,Helvetica,sans-serif" font-weight="400" fill="#5b6b82">Probability estimates after imbalance</text><text x="1133" y="582" font-size="17" font-family="Arial,Helvetica,sans-serif" font-weight="400" fill="#5b6b82">handling</text><rect x="1105" y="624" width="415" height="115" rx="16" fill="#ffffff" stroke="#bfd0e2" stroke-width="2"/><rect x="1105" y="624" width="12" height="115" rx="6" fill="#7354b5"/><text x="1133" y="658" font-size="22" font-family="Arial,Helvetica,sans-serif" font-weight="700" fill="#12345b">Cost-aware decision</text><text x="1133" y="692" font-size="17" font-family="Arial,Helvetica,sans-serif" font-weight="400" fill="#5b6b82">Threshold aligned to application</text><text x="1133" y="715" font-size="17" font-family="Arial,Helvetica,sans-serif" font-weight="400" fill="#5b6b82">consequences</text><line x1="430" y1="485" x2="500" y2="485" stroke="#1e9e94" stroke-width="7"/><polygon points="500,485 478,470 478,500" fill="#1e9e94"/><line x1="1030" y1="485" x2="1080" y2="485" stroke="#f07a28" stroke-width="7"/><polygon points="1080,485 1058,470 1058,500" fill="#f07a28"/><rect x="55" y="865" width="1490" height="95" rx="20" fill="#ffffff" stroke="#bfd0e2" stroke-width="2"/><text x="80" y="900" font-size="24" font-family="Arial" font-weight="700" fill="#12345b">Research checks</text><circle cx="300" cy="895" r="12" fill="#2f80d1"/><text x="320" y="902" font-size="17" font-family="Arial" fill="#5b6b82">reproducibility</text><circle cx="490" cy="895" r="12" fill="#1e9e94"/><text x="510" y="902" font-size="17" font-family="Arial" fill="#5b6b82">uncertainty</text><circle cx="680" cy="895" r="12" fill="#f07a28"/><text x="700" y="902" font-size="17" font-family="Arial" fill="#5b6b82">calibration</text><circle cx="870" cy="895" r="12" fill="#7354b5"/><text x="890" y="902" font-size="17" font-family="Arial" fill="#5b6b82">fairness</text><circle cx="1060" cy="895" r="12" fill="#3f9458"/><text x="1080" y="902" font-size="17" font-family="Arial" fill="#5b6b82">ablation</text><circle cx="1250" cy="895" r="12" fill="#cc4a4a"/><text x="1270" y="902" font-size="17" font-family="Arial" fill="#5b6b82">external validity</text><text x="1000" y="940" font-size="23" font-family="Georgia,serif" font-style="italic" fill="#12345b">F_β = (1+β²)·precision·recall /(β²·precision+recall)</text><text x="80" y="944" font-size="14" font-family="Arial" fill="#5b6b82">Conceptual visualization only · no empirical performance values are asserted by this figure.</text></svg>